<?xml version="1.0" encoding="UTF-8"?>
<!DOCTYPE svg PUBLIC "-//W3C//DTD SVG 1.1//EN" "http://www.w3.org/Graphics/SVG/1.1/DTD/svg11.dtd">
<!-- Creator: CorelDRAW 2017 -->
<svg xmlns="http://www.w3.org/2000/svg" xml:space="preserve" width="20.3198mm" height="21.1666mm" version="1.1" style="shape-rendering:geometricPrecision; text-rendering:geometricPrecision; image-rendering:optimizeQuality; fill-rule:evenodd; clip-rule:evenodd"
viewBox="0 0 2032 2117"
 xmlns:xlink="http://www.w3.org/1999/xlink">
 <defs>
  <style type="text/css">
   <![CDATA[
    .str0 {stroke:#00AFEF;stroke-width:7.62}
    .fil2 {fill:#00AFEF}
    .fil0 {fill:#57CC99}
    .fil1 {fill:#373435;fill-rule:nonzero}
   ]]>
  </style>
 </defs>
 <g id="Capa_x0020_1">
  <metadata id="CorelCorpID_0Corel-Layer"/>
  <polygon class="fil0" points="498,930 1014,1664 1014,1963 1014,1963 1014,1963 1014,1963 1014,757 1014,757 498,-8 -19,-8 -19,2125 498,2125 "/>
  <polygon class="fil1" points="498,930 1014,1664 1014,1664 1014,757 498,-8 1014,757 1531,-8 2048,-8 2048,2125 1531,2125 1531,930 1014,1664 "/>
  <polygon class="fil2 str0" points="498,2125 498,930 1014,1664 1014,757 498,-8 -19,-8 -19,2125 "/>
 </g>
</svg>
